<svg width="18" height="21" viewBox="0 0 18 21" fill="none" xmlns="http://www.w3.org/2000/svg">
<path d="M9.98838 16.3949C12.5181 16.3949 14.5688 14.3441 14.5688 11.8144C14.5688 9.28474 12.5181 7.23401 9.98838 7.23401C7.45869 7.23401 5.40796 9.28474 5.40796 11.8144C5.40796 14.3441 7.45869 16.3949 9.98838 16.3949Z" stroke="#E9ECFF" stroke-width="1.28455" stroke-miterlimit="10"/>
<path d="M2.90942 11.8287C2.90942 7.91795 6.07798 4.74939 9.98873 4.74939C13.8995 4.74939 17.068 7.91795 17.068 11.8287" stroke="#E9ECFF" stroke-width="1.28455" stroke-miterlimit="10"/>
<path d="M6.40424 5.72284L3.2608 2.08899L1.04309 4.3067" stroke="#E9ECFF" stroke-width="1.28455" stroke-miterlimit="10"/>
<path d="M9.9884 4.74972V0.584351" stroke="#E9ECFF" stroke-width="1.28455" stroke-miterlimit="10"/>
<path d="M9.9884 16.3949V20.5591" stroke="#E9ECFF" stroke-width="1.28455" stroke-miterlimit="10"/>
<circle cx="10.5532" cy="14.0027" r="0.803071" transform="rotate(45 10.5532 14.0027)" fill="#E9ECFF"/>
<circle cx="12.3146" cy="12.2412" r="0.803071" transform="rotate(45 12.3146 12.2412)" fill="#E9ECFF"/>
</svg>
